<svg xmlns="http://www.w3.org/2000/svg" width="17" height="16" viewBox="0 0 17 16"><g><g><path fill="#fff" d="M9 15a.54.54 0 0 1-.397-.174L2.208 7.911l-.004-.006C1.427 7.043 1 5.9 1 4.687s.427-2.356 1.204-3.218L2.3 1.36C3.09.483 4.146 0 5.27 0c1.126 0 2.18.483 2.97 1.361L9 2.203l.758-.842C10.548.483 11.603 0 12.728 0 13.854 0 14.91.483 15.7 1.36l.097.108C16.572 2.33 17 3.474 17 4.687s-.428 2.356-1.204 3.218l-.005.006-6.394 6.915A.54.54 0 0 1 9 15zM3.005 7.174L9 13.658l5.995-6.484c1.234-1.373 1.233-3.605-.002-4.977l-.097-.108c-.583-.647-1.352-1.003-2.168-1.003-.815 0-1.585.356-2.167 1.003l-1.16 1.289a.542.542 0 0 1-.803 0l-1.16-1.289c-.582-.647-1.351-1.003-2.167-1.003-.815 0-1.585.356-2.167 1.003l-.097.108C1.772 3.569 1.77 5.8 3.005 7.174z"/><path fill="none" stroke="#fff" stroke-linecap="round" stroke-linejoin="round" stroke-miterlimit="20" d="M9 15a.54.54 0 0 1-.397-.174L2.208 7.911l-.004-.006C1.427 7.043 1 5.9 1 4.687s.427-2.356 1.204-3.218L2.3 1.36C3.09.483 4.146 0 5.27 0c1.126 0 2.18.483 2.97 1.361L9 2.203l.758-.842C10.548.483 11.603 0 12.728 0 13.854 0 14.91.483 15.7 1.36l.097.108C16.572 2.33 17 3.474 17 4.687s-.428 2.356-1.204 3.218l-.005.006-6.394 6.915A.54.54 0 0 1 9 15zM3.005 7.174L9 13.658l5.995-6.484c1.234-1.373 1.233-3.605-.002-4.977l-.097-.108c-.583-.647-1.352-1.003-2.168-1.003-.815 0-1.585.356-2.167 1.003l-1.16 1.289a.542.542 0 0 1-.803 0l-1.16-1.289c-.582-.647-1.351-1.003-2.167-1.003-.815 0-1.585.356-2.167 1.003l-.097.108C1.772 3.569 1.77 5.8 3.005 7.174z"/></g></g></svg>